<svg width="26" height="26" viewBox="0 0 26 26" fill="none" xmlns="http://www.w3.org/2000/svg">
<path d="M12.953 20.2809L12.0201 21.2138L6.99787 20.0102L8.17247 25.0615L7.29756 25.9364L5.96828 19.899L0.394985 18.7051L1.30856 17.7915L5.89095 18.8453L4.84686 14.2532L5.71693 13.3832L6.9012 18.9371L12.953 20.2809ZM6.9012 12.1989L7.66976 11.4303L11.7543 15.5148C11.9089 15.6695 12.0765 15.8403 12.257 16.0272C12.4342 16.2109 12.6066 16.393 12.7742 16.5734C12.9418 16.7539 13.0916 16.9198 13.2237 17.0713C13.3591 17.2195 13.4622 17.3355 13.5331 17.4193L13.5718 17.3807L11.5803 7.51983L12.4842 6.61592L19.5511 13.6828L18.7825 14.4514L14.7464 10.4152C14.5756 10.2444 14.3983 10.0608 14.2146 9.86419C14.0277 9.6644 13.8473 9.47105 13.6733 9.28414C13.5025 9.09402 13.351 8.92322 13.2189 8.77177C13.0835 8.61709 12.9788 8.49947 12.9047 8.4189L12.8612 8.46241L14.8769 18.3571L13.9681 19.2658L6.9012 12.1989ZM23.6501 9.58383L22.8235 10.4104L16.4817 4.06854L14.2581 6.29206L13.5331 5.567L18.797 0.303059L19.5221 1.02812L17.3082 3.24197L23.6501 9.58383Z" fill="white"/>
</svg>
